<?xml version="1.0" standalone="no"?><!DOCTYPE svg PUBLIC "-//W3C//DTD SVG 1.1//EN" "http://www.w3.org/Graphics/SVG/1.1/DTD/svg11.dtd"><svg t="1602943258860" class="icon" viewBox="0 0 1194 1024" version="1.1" xmlns="http://www.w3.org/2000/svg" p-id="537" xmlns:xlink="http://www.w3.org/1999/xlink" width="37.3125" height="32"><defs><style type="text/css"></style></defs><path d="M322.958946 1023.99872l378.420852-0.42663a121.973531 121.973531 0 0 0 127.562384-115.616743v-3.41304a107.254794 107.254794 0 0 0-19.624982-61.434727 116.128699 116.128699 0 0 0 80.633079-107.510772v-3.41304a104.396373 104.396373 0 0 0-17.065202-57.595057 118.005871 118.005871 0 0 0 93.431981-110.923812v-3.839671a104.524362 104.524362 0 0 0-14.505422-53.328756h115.190113A121.973531 121.973531 0 0 0 1194.564133 390.879729v-3.41304a121.546901 121.546901 0 0 0-127.135754-115.190113l-435.589279 0.42663a20.008949 20.008949 0 0 1-13.225531-4.69293 15.998627 15.998627 0 0 1-0.42663-24.317913l47.355935-44.796155c1.27989-0.85326 2.13315-2.13315 3.413041-2.98641a103.671102 103.671102 0 0 0-10.239122-156.573228l-13.225531-10.665751a135.966996 135.966996 0 0 0-157.426488-6.826081L133.535205 256.064634a286.780718 286.780718 0 0 0-133.108575 236.779677L0 731.757138c0 161.692788 144.627586 292.668213 322.958946 292.241582z m-262.804109-292.668213l0.42663-238.486196a232.556039 232.556039 0 0 1 108.364032-192.836782l354.529569-234.219896a71.247218 71.247218 0 0 1 81.91297 3.413041l13.652161 11.092381c0.42663 0.42663 1.27989 0.85326 1.70652 1.27989a53.072778 53.072778 0 0 1 1.70652 79.779819l-47.782565 44.369525a67.151569 67.151569 0 0 0 2.13315 101.537951 83.91813 83.91813 0 0 0 55.035276 20.051612l435.589279-0.42663a63.994507 63.994507 0 0 1 66.980918 60.581467v3.41304a64.250485 64.250485 0 0 1-67.407548 61.008097l-408.711586 0.42663a23.592642 23.592642 0 1 0 0 46.929306h180.891141a63.994507 63.994507 0 0 1 66.980917 61.008096v3.413041a64.506463 64.506463 0 0 1-67.407547 61.008097h-226.113926a23.592642 23.592642 0 1 0 0 46.929305h150.173777a63.994507 63.994507 0 0 1 66.980918 61.008097v3.41304a64.506463 64.506463 0 0 1-67.407548 61.008097h-195.823192a23.592642 23.592642 0 1 0 0 46.929305h135.241725a63.994507 63.994507 0 0 1 66.980918 60.581467v3.83967a65.103745 65.103745 0 0 1-67.407548 61.008097H322.958946a250.901131 250.901131 0 0 1-262.804109-238.059567z" p-id="538"></path></svg>